<svg xmlns="http://www.w3.org/2000/svg" width="950" height="540" viewBox="0 0 950 540">
<rect width="100%" height="100%" fill="white"/>
<style>text{font-family:Arial,sans-serif;fill:#111}.grid{stroke:#ddd}.line{fill:none;stroke-width:3}</style>
<text x="475" y="30" text-anchor="middle" font-size="22">Late-contact sensitivity after a long hard isolation</text>
<line class="grid" x1="85" y1="435.0" x2="875" y2="435.0"/><text x="73" y="440.0" text-anchor="end" font-size="12">0.0</text>
<line class="grid" x1="85" y1="361.0" x2="875" y2="361.0"/><text x="73" y="366.0" text-anchor="end" font-size="12">0.2</text>
<line class="grid" x1="85" y1="287.0" x2="875" y2="287.0"/><text x="73" y="292.0" text-anchor="end" font-size="12">0.4</text>
<line class="grid" x1="85" y1="213.0" x2="875" y2="213.0"/><text x="73" y="218.0" text-anchor="end" font-size="12">0.6</text>
<line class="grid" x1="85" y1="139.0" x2="875" y2="139.0"/><text x="73" y="144.0" text-anchor="end" font-size="12">0.8</text>
<line class="grid" x1="85" y1="65.0" x2="875" y2="65.0"/><text x="73" y="70.0" text-anchor="end" font-size="12">1.0</text>
<text x="85.0" y="459" text-anchor="middle" font-size="12">0%</text><text x="164.0" y="459" text-anchor="middle" font-size="12">0.2%</text><text x="282.5" y="459" text-anchor="middle" font-size="12">0.5%</text><text x="480.0" y="459" text-anchor="middle" font-size="12">1%</text><text x="677.5" y="459" text-anchor="middle" font-size="12">1.5%</text><text x="875.0" y="459" text-anchor="middle" font-size="12">2%</text>
<polyline class="line" stroke="#1f77b4" points="85.0,435.0 89.0,420.4 94.9,398.7 104.8,366.3 124.5,305.4 164.0,224.8 203.5,168.6 282.5,109.6 381.2,80.8 480.0,70.6 677.5,65.8 875.0,65.1"/>
<polyline class="line" stroke="#ff7f0e" points="85.0,435.0 89.0,433.5 94.9,432.3 104.8,425.6 124.5,414.3 164.0,386.1 203.5,356.3 282.5,281.4 381.2,203.4 480.0,142.1 677.5,85.6 875.0,70.3"/>
<line x1="560" y1="82" x2="595" y2="82" stroke="#1f77b4" stroke-width="3"/><text x="605" y="87" font-size="12">mean final descendant fraction</text>
<line x1="560" y1="106" x2="595" y2="106" stroke="#ff7f0e" stroke-width="3"/><text x="605" y="111" font-size="12">probability of complete fixation</text>
<text x="480" y="488" text-anchor="middle" font-size="15">External-parent probability per parental draw</text>
<text x="24" y="250" transform="rotate(-90 24 250)" text-anchor="middle" font-size="15">Final fraction / fixation probability</text>
<text x="475" y="518" text-anchor="middle" font-size="11">Best-case conditional test: external pool already 100% descended from the founders; 9 generations, N=100, 5,000 replicates.</text>
</svg>